<mxfile host="app.diagrams.net" modified="2022-03-25T07:37:27.681Z" agent="5.0 (Windows NT 10.0; Win64; x64) AppleWebKit/537.36 (KHTML, like Gecko) Chrome/99.0.4844.74 Safari/537.36 Edg/99.0.1150.46" etag="ctZxNJQPDKrm5iNH2SyR" version="17.1.3" type="github">
  <diagram id="2N8tHgV4_MthCnLFXtQY" name="Page-1">
    <mxGraphModel dx="981" dy="520" grid="1" gridSize="10" guides="1" tooltips="1" connect="1" arrows="1" fold="1" page="1" pageScale="1" pageWidth="827" pageHeight="1169" math="0" shadow="0">
      <root>
        <mxCell id="0" />
        <mxCell id="1" parent="0" />
        <mxCell id="nFffbWnz8FUlV4oDBqfM-18" value="" style="shape=image;imageAspect=0;aspect=fixed;verticalLabelPosition=bottom;verticalAlign=top;fontSize=20;image=data:image/png,iVBORw0KGgoAAAANSUhEUgAAAQ0AAADRCAYAAADWmefoAAAAAXNSR0IArs4c6QAAAARnQU1BAACxjwv8YQUAAAAJcEhZcwAADsMAAA7DAcdvqGQAABu6SURBVHhe7Z3Pjx1XVsdbsAQJAyviERFKCCD+AxZsWaDY5CktZRVFCl5EQmLDBGdnW4/GshRsjdkBwi359SI2MTPIQrFkx5kRbRJpehF3pFmAYGI5LduSh6BAYhh0uef+qDr31q16t+rV7/v9SEfuV7+6X/mdzzv3Vt1bWwIAAGoAaQAAagFpBNkXy60tsaViIVYPzOIoaN+qfTY5NuPe0hyjeJyjvYVavrxnFjRk/9yWWOwdmVcAaDqTxsHqsnjh9K5477FZMEnWCSBE7D5Njm3R4imTQqfSeLASCxLVuX2zIMf+Xh1L+VeCOdKBND4TO6cvi53bd8WbkEYFG0hDJW73SelLQ0lheyVWcnlBGqryyf8m2pe2RZ0yP1qXxsHKiOLxyKVhvzGd8BOxLLH1N322n5McZp977PjB5NlAGl6C5vC/q3hsSnqSgEpos51bjRyJ1Xa+jiKTBp0vIwq1vyMNvZ9Tlajz2/D9gVHTXZ/GqKXhfchVEpbJwV/uJ4hJtCyJbOLapA4klKK+NNzyn0WhqRA+tt3f/i22crB/mS8Dv9KwFKXh/z57DjZvIoHxkaY0Ct+C+kNe/IAHki/0Le80F4r7+MmpCRw7ltJKwxI+tvo7eLLzv9t5D5r60jACNeeybH8wbRKtNOhDzj7QleV+QBq+ANZII7hPaLtYRikNv7LQAkGlMT+Sbp6o0r7wYeeUCMBPWGdZcZ9CsirmJI1QE2yD9wdGzbyloRJBfsD9b/ngN3+I0AeflvEE8RPG30dvH9X0iaULaXh/p9rWeZ85RWnY7fPfqV5HnWMwNVqXxuPbu+KF03SPBo+B5FEmDZPovNJwqg2VlP76ogiydU4CeetkOMJYe+wIyqSx5tjV0pDw/eV2tL0rQ37cfDuLFY0KCGO2dFdpjBlKDv9DXZaIAACHJKURKp1VyY1vRwDWkmalEWqeQBgARJGoNAAATYE0AAC1gDQAALWANAAAtYA0AAC1gDQAALWYvzTuyTcp36UN585L+fOClp8zrxuyL/df7JkXAMycDqTxWLz3LruFfPWZWT4MS/kOw4PRJF1Ko+rYVSIDYOTIj2y70NiTN28/Nq/01H/5654xidv1reG+NI7kz1vbUgZyeUEa5m/Kx4NoceD2dTAVWpeGj5pgeKhqw3yjhxKSEt1+0xeqBNpPrrcJHdpmJaVg1znrSQpGFOp3eNIILQtVQ/bvg0zA2JAfy24ZQho82Z3wkpXwqwSFbT7Y7T35+IkfPIYkJAiSDReElY+/P6QBxor8WHbI4Y3hhsUTXrKHKJWGTGY+FoWqAdWkCDR5mkjDSoH2U5LztgNgrHQnDTUJz2Wxc2heD8FIpeFXFmX7AzBGupGGEcZgHaCWEUqjTCSlV3gAGBntS2MswiC6kIb52Sa57T+JlYb9mzJJlPyNat/AcgCGRn4s20U/jtGPgfo1ShKSoMSndTyyxKf9KqRhj6tCJjeJg0sjdGxHHnx/GaG/D9IAY0V+LAEAIB5IAwBQC0gDAFALSAMAUAtIAwBQi1lK4/79++YnAEDbQBoAgFpAGgCAWkAaAIBaQBoj49GtU+KdKwfmVXfQYyhHM97lk12xdeyMiuUnZpk4EMtjl8TqoXlZBzreGzedO3rFw5tiQb/jQvfndu60Lw01HJ7dQj7ABDyQRjnqmbVbLJwn3hPm6fDbocdUuk+Oz58ovwlHYvWGkQVL9v0LZ8TiesPjQxqd0nGloecL7XvwGqQRJn/INSV/4An55sn5q8ADslVybzNRPFiJhRTH5tUKScNUFDbZQ0lfh033B5V03jyhAWzpSeNAXH39JfGOjbPXxCOzRtw/775W254Sd57oV1Yah1fy/a86b+eJuHOWHVvGxVtm50p40ktpFKSQLws9Vd8KhYtGSahQqTSAkjxrngSaJapK2JW/m9bp7XwpHF2/lB3DX09Vi13euHoBGR1LgyYW7n+E69DSoIQvTeQYaXAR0Pavnxd2LiMlE1aJVP4uDyUDalacW4pFQRo5IWmoZUwQ9ljhZkxzKPkLiW2bFplMtDyy/g8lHZKKoaTS2KjJAzI6kQbNSJ5yn4ZKbEcMjMhKI0dXLaraeHJNXGQCIepIQ2GaFVUJXykNVXGYfdWxAs2cpmQVhYeRRt5JygXA+kQskEandN48UQJ59654bF73wfDNE7cJ4TQvaktDH6s1aUhIAIu9fdVc8ZscRKk0fNGQQLztmmOTX/+rmxNGIGUyUUAafdO5NPRMXjdkavTHqDpCVaIzcTSqNMz6lqSRXW5VlcIin1zIEJJGqE8jqz5aQPVJ0JUNlvCU5EoGkMao6KUjtO8myqikwZsXhNNHYSuScmmo15lk3GOpdfJ1PWnIJNvWotDVQ1ylIVNOX27NJKFf+1dP7CXdWldVuBSyhGcyqJSGlkF2KdU0ZSCN7mhdGk5/RpJ9GjqxbdMklNSqz8Osu3o/UGmwfQt9I0o6Zp2US3ylYZLeCS4Mkom/XoYjD/cYQTGYPo/4ezj8SkG/dq6ArJEGnfPsqgptR9tn0uDr8oA8mlNPGk++K8T3f0GID+VuFHcQiETitgz6zH//54X49x2TEGkiz0IkJIw7P1M8mQhEivEvf2oSIz3ku4/ko58LnzwEIsmQX6CJIt99JPyE/etpIZ6Nt004ro5QMBt+8qGbB4kS/855H8b//sQsHCeQBugMmwOUD4kS/87tyaIOoZEDaYDOsHlAkSjx73xCJwvSAJ0xoTzoivh3PqGTBWmAzphQHnRF/Duf0MmCNEBnTCgPuiL+nU/oZI1HGubuUGcsCZg0E8qDroh/57VPlp61a4gnxqcrDX0rePW4D/dWcPd2b+9W8pYGo82K2nkwP+Lfec2TpcagrG4kOQnPcKyRhplLg4viaG+ZjXJ1Z+LScokfQ5IINfNgjsS/8zonSw2HJ1mkOHNXccBaodLgg87YYLXNqZZG5fR8gWHy4dGuiVMnD2ZK/DuPPll8MuE0p/vjqBGtXBpqTgwmCmeo/KZUSSM8lD3Dn1DHztDV5sxccyA6D+ZL/DuPPVn0CINspi5Iw5cGDX13h7Kzmbk2pgVpZNMBkixon+IkPUkTmwczJv6dR50sXxKQhi8NPpcGj1FIw68s2p4DdA5E5cG8iX/nMSfLf1ASjx4n4xm7NOpOzxdPlTT0ujp9GoUmC4jLg5kT/87tJCS1xp6g0vClofswNuz8tE2IQkJXSUNiqgm+Pr96YqSSHVO/xtUTj0Z5MC/i3zk37Nf/ZhauA9IoSINwrp5Q1OwIXSON7D4LE45EsmaIjqr7NCAMj//72s2DRIl/5x/+rHvCyLT8NQIx5wh93hMl/p3/6FTxpCEQqcYPf9ckRnrIdx/P0cev5SeNT8qDQCQUX3z0OyYj0kSehTg++LEQx/9aiOf+CoFA7PCHMyVGtDRe/NvwyUMgUgz6Ak2VaGnwE0aWffTfZsUIGdPVEzAf9r9w8yBVoqVxnJ2sL5+ZhSMF0gBdAWk0rDTGDqQBumJKedAVkAYANZhSHnQFpJEoNLdG6e3mbWOf5O48ePnIe/DzNJhSHnRF+9JQE/AMN1iNgDTKURPxsNvIiwPY9GjYNgeq7V8wsmBPfz+6fklsXfBur58A0XkwY7qRRjafxjBAGmGUMJQMSAyBIe9qXMpSrFqesYukoSoKKw0mj6kRnQczBtJoGT3JzjUz5d95cWgHp3kT8fABa/lcGnqqQHduDX+ZnrSH7x831J6PWpXSKEghX9b6NH9O8+Qg0CzJmyokGNpu69glsXpoVhOf7JrlOvL99b5bb9zM/16zbRdNn+g8mDGQRstoIdDQd5PcZ6+JR2qKPzOS1Z/ezxsqXxgVy/eVbDI/h5IBjV49txSLCil0OjcoJXShWWISXya67fNQ8si2OxBLvo+SAq9U5PpsX/1zF8IgovNgxvTQp3FD/jf2y+DSUEnNpvHLEl8v85PcSXxPEs70gN46oo40FNl0fuX9Ft1JgxLaqyAURhq+GHj14BA4jmnyrDruK4nOgxnTvjQ81KMMehbH2KXhNj/8xOfb0M9swp42pCEhKSz29s3cGcW+ja6kYTtEi02QvHlSRr6Pv2+O6lztuK+kaR7Mic6loSsPSKO80iguy45B+1HzxixvSxrZ5dbQFH+STqRhKwfvCopuUlRLoyiDQKVhjr9P25ZWKJvTOA9mRMfSME9ZS+iSa7U0zHqe+H4fB2FkcSi3dasSt1NUH6uuNGSCbmtRKDnUrTTszF+1nr7GkpxJw1YeUdJgItBVB5cG78fQx7J9I23TLA/mRevS0M2RvE9DP/+kX8YsDcImu47wfKFUQQSnAeRTBcrfE19pmPsvnODCIJn462UU5FH/Po5cDpq8qWGrh2ppWCnYpsni+k1WaZh1hY7SbsQRmwdzppY07KC1sTOkNPqmfvOk5B6NaIxcalUa82FKedAVjSqNz//TLBwpkEYF1I/RsL9CN2fSFcY3P3XzIFWipfGtv3FPGAKReqRKtDS+/YPwiUMgUoxX/sEkRoJES4N463b4BCIQKcWJ75mESJRa0pgKKfVpANA39aVx6x+F+O3nhXj+mBC/+osy6F8EIoGgz/xvHRfiL//CJEOa1JMGCeP5XwqfUAQimZBfln9+xiRFetSTxm88FziBCESCQV+eiVJPGvyknT8rxONsVMSoGE+fhr7tW98hCibPvR+4OZAo9aSh+jFMfPkfZmGYg1V+K3m60/2NTRp0N2hxgJqD81T5wLZ2aH2iN3jl/Xjy30RpXmmUMswgNQ6unpRRLQ19xydffyRW5/K7R+1AthVNG5isNGJyYN60L43DG4MKgxhWGqa64JFVGjSI7ZS4cyufAlAPTHNHrtJt4XY5X7c5VdLQA9FKZyinCsOIQs01CmmYBenRujSoWfLm7btih4103SkM1eyWMVUaKvkdacjX2RSAetxIPjI2MNw9NHS+MRXSMJMKx6gA0qjOgbnTsjRM04RPukOVx+ld8V6PI+THLg1/uHxBGtn2BFUu4eHz9YE0NmZtDsyfTqThVhahZd0yP2m01USBNDZmbQ7Mn46aJ7ysgDQ2l0YPlYa5KhLz1DVIozoH5k59adjLrmWo5ojfPElnjlCfTaWh9ufzhEagkjoogAppSPR+3mxe7OqJJXlprMuBmdO80njwY7OwiDvlX7/CICYvDXPVREVNYRDV0tDryu7FsPsW14X2lZGSPL75xs2BRKknjV/7ZXbSMFgNkVp4n/lEqSeN03/snjQEItV49fdNUqRHPWkQf/SH7OSh2kCkFvIz/8rvmWRIk/rSmABj6tMAYG5USuODLz4Qv/m9l8Txv/sV8dz7MuhfBCLBoBz49e++KL7zo++Y7EiXUmmQMI6//1zwBCIQKcfO/aXJkjQplcaLf/9C8IQhEKnH8fePmyxJk1Jp8ObIzuGfiUdfj3PCHQD6YP/xPzniSJlSaah+DBNf/s+XZikA6cK/SFOmvNJg0gAAICcsLUvDDo33o9+h8TEc7ck3f868KGG1LbeRZ0iFt23VOjBPmuXE/GhZGgEGGLAWwzppLH0Z3JPLzFiOfbmcr6NtF/J4YN60lhMTp3NpFIfKj4Mqaah1spIIPln9gRSEPGt8kFdwe7MdZDIf2sqJqdOtNB7fFW+OsMogqqRBTY/SZJfVhiMIei3PIoUz3hPSmB2t5MQM6FQaY60yiI2lYaRgZUFNlLJ5KsA8aCMn5kB30lBVxvg6QC0bSYPJQmEEkui0NMmwcU7MhM6koR6WNPCjDKqokobq6ORNEI4RhFNV+E0WMEs2zYm50I00xlJl2CZEIKGrpBHsj5BisFdP1OVWdsxgZRI6Bpg0G+XEjOhAGuZejTFUGeukQet4cInYfUPrJEocZl1QDJDG7GieE/NCfqzD4AQB4IKc0EAaAESCnNBAGgBEgpzQQBoARIKc0EAaAESCnNDMUhqYWBh0wZRzok0gDQAimXJOtAmkAUAkU86JNoE0AIhkyjnRJpBGotCDnosPiO6IhzfF4tgZsSVjcd3em3skVm+cEctPzMsJMOWcaJNOpKEGq7Hp/nbo0eg9AmmU4z4V3nvq+4OVWLB1bUll/4KRhZLHrhoNfHT9kti6MMaZVsrZJCfmROvSeHx71x13MsB0f5BGGCWM7ZX8jt8Xy62lN5RffvNvL/LRu/eWUhzs9QaQNFRFYaXB5DElmubE3GhdGoWJdwaYvWtIaTy6dUpcvHVNXH39JfHO6+fF4f3z8l/585X8DNA2apmJq9mfe6D2y18T/rIn4s7ZfF+Ki7eemHVVkBS2xGKPmgdSGkoeVZBYWqo2nObJQaBZkjdVSDC03daxS2L10KwmPtk1y3Xk++t9t964mb8fs23bTZ+mOTE32m+eqMrCNkmGGfE6tDTeef2UuPPEJPfZa+LRk2viIgmENlASMT8T6jVtr18eXpH7MMEIvq/EX0+v46Qh02tvoZodi3NLsehTGhxK6EKzxCS+THTb56HkkW13IJZ8HyUFXqnI9dm++ue2hUE0zomZ0VFH6Gdix/RnDDHd3+DSUEmtpaEqhCzx9TI/yZ3E9yShK5fwOqKONBS836JCHHlTpk0oob0KQmGk4YuBVw8OgeOYJs+qw76SzXJiPnRUadgJeIw83r0ra47+GLs03OaHn/h8G/o5r0JakYaEKo7F3r5qrmwV+jZsRVJcvim2Q7TYBMmbJ2Xk+/j75qjO1Q77ShrnxMxoWRq6OeJWF1ocfV5BmValUVyWHYP2o+aNWd6WNLLLrarqcDs7tTDa6QB1sJWDdwVFNymqpVGUQaDSMMffp21LK5TNaJYT86MTaRSvnvQ79d94pWHW88T3+zgII4tDua1blbidovpYdaUhE9RcJfEriihhqKsqskLhl2rXwpKcScNWHlHSYCLQVQeXBu/H0MeyfSNt0iwn5kelNOxDoOuR92fo6H+u0DFLg7DJroM1PxhUQRRkQtirMRTy98RXGrpj096DoYM3QULrZWz7/Rpmu8LycnI5aPKmhq0e1jVPtBRs02Rx/SarNMy6Qkdp++JonhPzIqrS+Py/PjdLp8GQ0uib+s0TSvpN+iuoUpHSqFVpTJ9vfvqNkxMpUyqNb71/3DlJCAQij5Qplca3f/gnwZOFQKQer3z0ByZL0qRUGsRb//xW8KQhEKnGibsnTHakS6U0pkpKfRoA9E2lND7++GPx2muviZdfflmcOHFC/YtAIMKxvb0trl27ZrJnvpRKg4Rx8uTJ4MlBIBDlceXKFZNF86RUGq+++mrwhCAQiOqgqnzOlEqDn4Td3V3x9OlTswYA4PPpp586OTNnoqTx1VdfmaUAgDJ4zsyZKGnUxZnur+cRrrGop8Z7T4L34U+GD227pOWBJ9KDNNkkZ6ZE69JQ0/0xUSiB9DwJTwzrpKGEwNffk8vshDTyXxLJio4BaQBD05yZGi1LIzAMfoDp/mKokoZaVyGDpVlXud0DIRby7C7kNiANmuXM9OhAGv6o1tCy4amSBjVLYpId0gCcZjkzPVqWRrE5ovs3EpQGSI6mOTM1WpeGP5/GziG9nlbzBNIATWieM9OiA2l4UJ/GCK+gVEljXy6PkQGkATit5czI6VYaqhN0wKaJ6VcIJXaVNIL9EfzqiaFSGujTSI5WcmYCtC4Ndck1a54M3CxZJw1ax4NLxO4bWOfcv2HD/x2QRnI0zZmpIT/WYVI5AQC0RSo5A2kA0BKp5AykAUBLpJIzkAYALZFKzkAaALREKjkzS2lcvnzZ/ARAf0w5Z+oAaQDQElPOmTpAGgC0xJRzpg6QBgAtMeWcqQOk0RXqoc/6Ic1t4jw8uuVj52z6vNc+0Q+PVg+HZk+WV0+a5w+F7oEp50wdGkvD3i7uTLhjGPpW8jlLw5I/nb5Nik+O98fbiAcrsaB1JQ+APtpbhPdT1H/i/FroCfFKFuzJ8w9vikX2RPr+WJczc6GBNB6L9969LN68fbc4SxdxeMMRhZpPo+dRrik0T9qXhk7oxZ5M53vLoBSUEGTCr86FpKGfJr/YW6njFKRBx5TVy8oco1VpqIrCSoPJo2fKc2Ze1JYGVRFaFIGp/TKhMEUMMNJ1aGkcXjHNBxkXbz0xS4kn4s7ZU+LOrfNZ88Jue9U8SbIgA1WxnBe+m0ulcd8cO4vivkFUBbEQqwfyZ5ngSh4cWm9EsR+QBglFi0LLx5WGXGZEYcXTmjSMLGzzZD/QLNm/cEYsrstahNbRdjIcqZB4zHJ3nTk2a/bYbUNSKsuZubFBn0ZIGv7UfvmEPKFmTFeMpdIgIRSlIRP57DXxyDRfaD0XwEbSUNtKKdlfWbJvGF0pbElxLM8titJghKSRE5JGTvvS4ByIZaBZQtJQQjAyUfLIRCD34ZJRUuDHoGNq6dify6qY9TkzDzqShq44rCyoieJUHx0zdmmoqoIldFvSKPy+WtLQ2D4JijJxjFUatqLwUdLg1UJlnweJ4ZJYPTQvCbP9ak3n6vqcmQcdSMOvLLRAUGkQ45eGrjhkM+VeeYfnKKVhO0RZU8MKpEwmlqwSycKThkQ3bao7V9fnzDxoWRqBPo2s+jAvewDSMDSSBiW9vtxaluDjk4atDlgnKFUHprqokkZRBoFKwwhJ9ZfwisVjfc7Mg5aloTtK+ezj6nWiV08aS4P6PNSrA3G1pDMzJI3YfSuhDk+V1KaPo89KQ11hqTp2mFwKTBq28nDWF3H7N/S2bqXB+zH08cuOtT5n5kF9aahLqroJwoPLw7lPY4BJhYeVhk1WN7Q81kvDbqP3OyXu3OfVAl/HImrfNdiE5eEkr5ZB6Tah/WVoeRgB+esL8jC/o0wqIZgcFKx5Yjssq6RhpWD3WVy/ySoNs67QURo+XmnOzIwNKo3xMpZKY3CaNE8o+Wt+07dHeXUzBaacM3WANOZMA2lQ86HqcmtXqGYLVRkTFQYx5ZypA6QxZxp1hIKmTDln6hAljUePdNfaVIA0QN88e/bMyZk5UyqNkydPOicBgUDEx5wplQZ9W4dOBgKBqI7Tp0+bLJonpdIgLly4EDwpCAQiHG+//bbJnvlSKY2pgj4NALoD0gAA1ALSAADUorE07K3iZaNX1YxdPQ9Us0xeGjSRTjaGBIBx0UAaa6b7swPZ5Pq+Z+yyQBoAdEdtaVRP90cVhhHFANP8WYaVRj4ojUa5ZoPH+GBXZ0o+f6Ytu5wHv6uzOGjNHUkLQLds0KcRlkZG4tLgyazkYUeiKjEwUSiBeLd6V1QazrEkxeH3AHQLpNE6Rhp8rgsmARoGXzrHhqVMGoGxJJAG6BtIo3UCEmDkTRY3IA0wFSCN1lkvjbVJDmmAEQNptE61NJQQ/I5RH7/fI0PPCmaPrWb8kq8hDdAn9aWxZro/Z6q/LPqVx6ilQShx8OaJ1xEqsUIorOf7XtEPW4I0QJ9sUGmMl2Gl0S+QBugbSGPiQBqgbyCNiQNpgL6BNAAAtYA0AAC1mKU0nj59ikAgOgpIA4FA1Iin4v8BtqqV/SrV6RsAAAAASUVORK5CYII=;" vertex="1" parent="1">
          <mxGeometry x="730" y="180" width="449.19" height="349" as="geometry" />
        </mxCell>
        <mxCell id="nFffbWnz8FUlV4oDBqfM-3" value="" style="edgeStyle=orthogonalEdgeStyle;rounded=0;orthogonalLoop=1;jettySize=auto;html=1;fontSize=20;" edge="1" parent="1" source="nFffbWnz8FUlV4oDBqfM-1" target="nFffbWnz8FUlV4oDBqfM-2">
          <mxGeometry relative="1" as="geometry" />
        </mxCell>
        <mxCell id="nFffbWnz8FUlV4oDBqfM-4" value="No" style="edgeLabel;html=1;align=center;verticalAlign=middle;resizable=0;points=[];fontSize=20;" vertex="1" connectable="0" parent="nFffbWnz8FUlV4oDBqfM-3">
          <mxGeometry x="-0.1897" y="-1" relative="1" as="geometry">
            <mxPoint x="1" y="8" as="offset" />
          </mxGeometry>
        </mxCell>
        <mxCell id="nFffbWnz8FUlV4oDBqfM-6" value="" style="edgeStyle=orthogonalEdgeStyle;rounded=0;orthogonalLoop=1;jettySize=auto;html=1;fontSize=20;" edge="1" parent="1" source="nFffbWnz8FUlV4oDBqfM-1" target="nFffbWnz8FUlV4oDBqfM-5">
          <mxGeometry relative="1" as="geometry" />
        </mxCell>
        <mxCell id="nFffbWnz8FUlV4oDBqfM-7" value="Yes" style="edgeLabel;html=1;align=center;verticalAlign=middle;resizable=0;points=[];fontSize=20;" vertex="1" connectable="0" parent="nFffbWnz8FUlV4oDBqfM-6">
          <mxGeometry x="-0.0462" y="-1" relative="1" as="geometry">
            <mxPoint as="offset" />
          </mxGeometry>
        </mxCell>
        <mxCell id="nFffbWnz8FUlV4oDBqfM-1" value="&lt;font style=&quot;font-size: 20px&quot;&gt;if&lt;/font&gt;" style="strokeWidth=2;html=1;shape=mxgraph.flowchart.decision;whiteSpace=wrap;fillColor=#f5f5f5;fontColor=#333333;strokeColor=#666666;" vertex="1" parent="1">
          <mxGeometry x="280" y="120" width="160" height="80" as="geometry" />
        </mxCell>
        <mxCell id="nFffbWnz8FUlV4oDBqfM-13" value="" style="edgeStyle=orthogonalEdgeStyle;rounded=0;orthogonalLoop=1;jettySize=auto;html=1;fontSize=20;" edge="1" parent="1" source="nFffbWnz8FUlV4oDBqfM-2" target="nFffbWnz8FUlV4oDBqfM-12">
          <mxGeometry relative="1" as="geometry" />
        </mxCell>
        <mxCell id="nFffbWnz8FUlV4oDBqfM-2" value="intr block A" style="whiteSpace=wrap;html=1;strokeWidth=2;fillColor=#dae8fc;strokeColor=#6c8ebf;" vertex="1" parent="1">
          <mxGeometry x="300" y="280" width="120" height="60" as="geometry" />
        </mxCell>
        <mxCell id="nFffbWnz8FUlV4oDBqfM-11" value="" style="edgeStyle=orthogonalEdgeStyle;rounded=0;orthogonalLoop=1;jettySize=auto;html=1;fontSize=20;" edge="1" parent="1" source="nFffbWnz8FUlV4oDBqfM-5" target="nFffbWnz8FUlV4oDBqfM-10">
          <mxGeometry relative="1" as="geometry" />
        </mxCell>
        <mxCell id="nFffbWnz8FUlV4oDBqfM-5" value="jmp" style="whiteSpace=wrap;html=1;strokeWidth=2;fillColor=#e1d5e7;strokeColor=#9673a6;" vertex="1" parent="1">
          <mxGeometry x="520" y="280" width="120" height="60" as="geometry" />
        </mxCell>
        <mxCell id="nFffbWnz8FUlV4oDBqfM-17" value="" style="edgeStyle=orthogonalEdgeStyle;rounded=0;orthogonalLoop=1;jettySize=auto;html=1;fontSize=20;" edge="1" parent="1" source="nFffbWnz8FUlV4oDBqfM-10" target="nFffbWnz8FUlV4oDBqfM-14">
          <mxGeometry relative="1" as="geometry" />
        </mxCell>
        <mxCell id="nFffbWnz8FUlV4oDBqfM-10" value="intr block B" style="whiteSpace=wrap;html=1;strokeWidth=2;fillColor=#d5e8d4;strokeColor=#82b366;" vertex="1" parent="1">
          <mxGeometry x="520" y="420" width="120" height="60" as="geometry" />
        </mxCell>
        <mxCell id="nFffbWnz8FUlV4oDBqfM-15" value="" style="edgeStyle=orthogonalEdgeStyle;rounded=0;orthogonalLoop=1;jettySize=auto;html=1;fontSize=20;" edge="1" parent="1" source="nFffbWnz8FUlV4oDBqfM-12" target="nFffbWnz8FUlV4oDBqfM-14">
          <mxGeometry relative="1" as="geometry">
            <Array as="points">
              <mxPoint x="360" y="520" />
              <mxPoint x="580" y="520" />
            </Array>
          </mxGeometry>
        </mxCell>
        <mxCell id="nFffbWnz8FUlV4oDBqfM-12" value="jmp" style="whiteSpace=wrap;html=1;strokeWidth=2;fillColor=#f8cecc;strokeColor=#b85450;" vertex="1" parent="1">
          <mxGeometry x="300" y="420" width="120" height="60" as="geometry" />
        </mxCell>
        <mxCell id="nFffbWnz8FUlV4oDBqfM-14" value="join" style="whiteSpace=wrap;html=1;strokeWidth=2;fillColor=#f5f5f5;fontColor=#333333;strokeColor=#666666;" vertex="1" parent="1">
          <mxGeometry x="520" y="560" width="120" height="60" as="geometry" />
        </mxCell>
        <mxCell id="nFffbWnz8FUlV4oDBqfM-20" value="" style="endArrow=classic;html=1;rounded=0;fontSize=20;entryX=1;entryY=0.5;entryDx=0;entryDy=0;dashed=1;strokeColor=#A680B8;" edge="1" parent="1" target="nFffbWnz8FUlV4oDBqfM-5">
          <mxGeometry width="50" height="50" relative="1" as="geometry">
            <mxPoint x="730" y="290" as="sourcePoint" />
            <mxPoint x="700" y="350" as="targetPoint" />
          </mxGeometry>
        </mxCell>
        <mxCell id="nFffbWnz8FUlV4oDBqfM-21" value="" style="endArrow=classic;html=1;rounded=0;fontSize=20;entryX=1;entryY=0.5;entryDx=0;entryDy=0;exitX=-0.005;exitY=0.636;exitDx=0;exitDy=0;exitPerimeter=0;dashed=1;strokeColor=#A680B8;" edge="1" parent="1" source="nFffbWnz8FUlV4oDBqfM-18" target="nFffbWnz8FUlV4oDBqfM-10">
          <mxGeometry width="50" height="50" relative="1" as="geometry">
            <mxPoint x="660" y="470" as="sourcePoint" />
            <mxPoint x="710" y="420" as="targetPoint" />
          </mxGeometry>
        </mxCell>
        <mxCell id="nFffbWnz8FUlV4oDBqfM-22" value="" style="endArrow=classic;html=1;rounded=0;fontSize=20;exitX=0.002;exitY=0.391;exitDx=0;exitDy=0;exitPerimeter=0;entryX=1;entryY=0.5;entryDx=0;entryDy=0;dashed=1;strokeColor=#A680B8;" edge="1" parent="1" source="nFffbWnz8FUlV4oDBqfM-18" target="nFffbWnz8FUlV4oDBqfM-2">
          <mxGeometry width="50" height="50" relative="1" as="geometry">
            <mxPoint x="640" y="400" as="sourcePoint" />
            <mxPoint x="690" y="350" as="targetPoint" />
            <Array as="points">
              <mxPoint x="650" y="360" />
              <mxPoint x="480" y="360" />
            </Array>
          </mxGeometry>
        </mxCell>
        <mxCell id="nFffbWnz8FUlV4oDBqfM-23" value="" style="endArrow=classic;html=1;rounded=0;fontSize=20;exitX=0;exitY=0.5;exitDx=0;exitDy=0;entryX=0.992;entryY=0.356;entryDx=0;entryDy=0;entryPerimeter=0;dashed=1;strokeColor=#A680B8;" edge="1" parent="1" source="nFffbWnz8FUlV4oDBqfM-18" target="nFffbWnz8FUlV4oDBqfM-12">
          <mxGeometry width="50" height="50" relative="1" as="geometry">
            <mxPoint x="450" y="430" as="sourcePoint" />
            <mxPoint x="500" y="380" as="targetPoint" />
            <Array as="points">
              <mxPoint x="650" y="400" />
              <mxPoint x="480" y="400" />
            </Array>
          </mxGeometry>
        </mxCell>
        <mxCell id="nFffbWnz8FUlV4oDBqfM-24" value="" style="endArrow=classic;html=1;rounded=0;fontSize=20;entryX=1;entryY=0.5;entryDx=0;entryDy=0;exitX=-0.006;exitY=0.85;exitDx=0;exitDy=0;exitPerimeter=0;dashed=1;strokeColor=#A680B8;" edge="1" parent="1" source="nFffbWnz8FUlV4oDBqfM-18" target="nFffbWnz8FUlV4oDBqfM-14">
          <mxGeometry width="50" height="50" relative="1" as="geometry">
            <mxPoint x="690" y="560" as="sourcePoint" />
            <mxPoint x="740" y="510" as="targetPoint" />
          </mxGeometry>
        </mxCell>
        <mxCell id="nFffbWnz8FUlV4oDBqfM-26" value="int find10(int a){&lt;br&gt;&lt;span style=&quot;white-space: pre&quot;&gt;	&lt;/span&gt;if (a == 10) {&lt;br&gt;&lt;span style=&quot;white-space: pre&quot;&gt;	&lt;span style=&quot;white-space: pre&quot;&gt;	&lt;/span&gt;a&lt;/span&gt;&amp;nbsp;= 1;&lt;br&gt;&lt;span style=&quot;white-space: pre&quot;&gt;	&lt;/span&gt;} else {&lt;br&gt;&lt;span style=&quot;white-space: pre&quot;&gt;	&lt;/span&gt;&lt;span style=&quot;white-space: pre&quot;&gt;	&lt;/span&gt;a = 2;&lt;br&gt;&lt;span style=&quot;white-space: pre&quot;&gt;	&lt;/span&gt;}&lt;br&gt;&lt;span style=&quot;white-space: pre&quot;&gt;	&lt;/span&gt;a = a * 111;&lt;br&gt;&lt;span style=&quot;white-space: pre&quot;&gt;	&lt;/span&gt;return a;&lt;br&gt;}" style="text;html=1;strokeColor=#d6b656;fillColor=#fff2cc;align=left;verticalAlign=middle;whiteSpace=wrap;rounded=0;fontSize=11;" vertex="1" parent="1">
          <mxGeometry x="850" y="20" width="240" height="140" as="geometry" />
        </mxCell>
      </root>
    </mxGraphModel>
  </diagram>
</mxfile>
